<?xml version="1.0" encoding="UTF-8" standalone="no"?>
<svg
   xmlns:dc="http://purl.org/dc/elements/1.1/"
   xmlns:cc="http://creativecommons.org/ns#"
   xmlns:rdf="http://www.w3.org/1999/02/22-rdf-syntax-ns#"
   xmlns:svg="http://www.w3.org/2000/svg"
   xmlns="http://www.w3.org/2000/svg"
   xmlns:sodipodi="http://sodipodi.sourceforge.net/DTD/sodipodi-0.dtd"
   xmlns:inkscape="http://www.inkscape.org/namespaces/inkscape"
   width="100mm"
   height="100mm"
   viewBox="0 0 99.999998 99.999998"
   version="1.1"
   id="svg8"
   inkscape:version="1.0.2-2 (e86c870879, 2021-01-15)"
   sodipodi:docname="airplane.svg">
  <defs
     id="defs2" />
  <sodipodi:namedview
     id="base"
     pagecolor="#ffffff"
     bordercolor="#666666"
     borderopacity="1.0"
     inkscape:pageopacity="0.0"
     inkscape:pageshadow="2"
     inkscape:zoom="1.4"
     inkscape:cx="230.29837"
     inkscape:cy="220.23384"
     inkscape:document-units="mm"
     inkscape:current-layer="layer1"
     inkscape:document-rotation="0"
     showgrid="false"
     inkscape:snap-page="true"
     inkscape:snap-object-midpoints="false"
     inkscape:snap-grids="false"
     inkscape:snap-to-guides="false"
     inkscape:snap-center="false"
     fit-margin-top="0"
     fit-margin-left="0"
     fit-margin-right="0"
     fit-margin-bottom="0"
     inkscape:window-width="1920"
     inkscape:window-height="1001"
     inkscape:window-x="-9"
     inkscape:window-y="-9"
     inkscape:window-maximized="1"
     inkscape:snap-others="false"
     inkscape:snap-bbox="true"
     inkscape:bbox-nodes="false"
     inkscape:snap-bbox-edge-midpoints="true" />
  <metadata
     id="metadata5">
    <rdf:RDF>
      <cc:Work
         rdf:about="">
        <dc:format>image/svg+xml</dc:format>
        <dc:type
           rdf:resource="http://purl.org/dc/dcmitype/StillImage" />
        <dc:title></dc:title>
      </cc:Work>
    </rdf:RDF>
  </metadata>
  <g
     inkscape:label="Layer 1"
     inkscape:groupmode="layer"
     id="layer1"
     transform="translate(-0.53454461)">
    <g
       id="g56"
       transform="matrix(2.1242572,-2.1242572,2.1242572,2.1242572,-426.3077,78.422584)"
       inkscape:export-xdpi="96"
       inkscape:export-ydpi="96">
      <path
         style="fill:#e8e8e8;stroke-width:0.0661458"
         d="m 113.34702,120.73268 c -0.11841,-0.0655 -1.03321,-1.11057 -2.1088,-2.40901 l -1.89967,-2.29326 -0.51048,0.35771 c -0.84052,0.58897 -1.31482,0.75253 -1.44996,0.50002 -0.12041,-0.22498 0.10503,-0.75234 0.62123,-1.4532 0.26724,-0.36285 0.29525,-0.42983 0.20746,-0.49609 -0.69098,-0.52157 -4.29056,-3.56898 -4.39961,-3.72473 -0.10813,-0.15444 -0.14065,-0.28292 -0.12535,-0.49525 l 0.0207,-0.2867 1.19063,-0.82228 c 1.12489,-0.77688 1.21143,-0.82392 1.56745,-0.85191 0.20725,-0.0163 0.46933,0.003 0.58241,0.0421 0.11307,0.0394 1.03432,0.63819 2.04722,1.33061 1.0129,0.69242 1.85754,1.25894 1.87699,1.25894 0.0194,0 0.39994,-0.48369 0.84555,-1.07487 0.44561,-0.59117 1.34806,-1.75264 2.00544,-2.58103 0.65739,-0.82839 1.2509,-1.57696 1.31892,-1.66349 l 0.12367,-0.15732 -4.4816,-5.1826 c -2.46489,-2.850439 -4.52397,-5.282434 -4.57573,-5.404438 -0.10768,-0.253758 -0.066,-0.544524 0.099,-0.690139 0.0616,-0.05437 0.9752,-0.402862 2.03023,-0.77442 1.69906,-0.598372 1.95412,-0.67135 2.23236,-0.638727 0.71557,0.0839 0.69739,0.06812 4.78142,4.148426 l 3.83877,3.835268 0.71246,-0.84054 0.71246,-0.840553 -0.39629,-0.396286 -0.39629,-0.396287 -0.27233,0.24604 c -0.14979,0.135323 -0.34769,0.274691 -0.43979,0.309706 -0.33102,0.125851 -0.81782,-0.27313 -0.81782,-0.670276 0,-0.105221 0.30276,-0.456378 1.00872,-1.169948 0.5548,-0.560781 1.07712,-1.046442 1.16072,-1.079247 0.19368,-0.07601 0.55075,0.06592 0.69926,0.277946 0.17935,0.256059 0.13589,0.531028 -0.13372,0.846004 l -0.24158,0.282235 0.36102,0.361029 0.36103,0.36103 0.44735,-0.530102 c 0.6244,-0.739911 1.04265,-1.097386 1.58869,-1.357825 0.59501,-0.283793 1.77217,-0.535124 2.09728,-0.447779 0.2092,0.0562 0.24669,0.04033 0.53628,-0.227041 0.27759,-0.256284 0.34591,-0.287469 0.62986,-0.287469 0.257,0 0.36544,0.0387 0.5617,0.200475 l 0.24321,0.200476 0.60317,-0.541418 c 0.5767,-0.517661 0.59789,-0.546348 0.48293,-0.653802 -0.0661,-0.06181 -0.96049,-0.787236 -1.98745,-1.612054 -1.02696,-0.824819 -1.8976,-1.556482 -1.93476,-1.625919 -0.11406,-0.213118 -0.0765,-0.384809 0.13772,-0.628738 0.16681,-0.189984 0.25202,-0.233812 0.4546,-0.233812 0.30993,0 0.30413,-0.0062 2.17817,2.329431 l 1.41592,1.764674 0.41415,-0.363604 c 0.45429,-0.398845 0.79375,-0.517399 0.9483,-0.331185 0.14684,0.176939 0.029,0.514867 -0.326,0.934702 -0.18197,0.215216 -0.32311,0.412156 -0.31364,0.437643 0.009,0.02549 0.92507,0.770553 2.03467,1.6557 l 2.01745,1.609358 0.0204,0.282344 c 0.0173,0.239583 -0.009,0.312213 -0.17681,0.479558 -0.1511,0.151095 -0.25724,0.197212 -0.45391,0.197212 -0.32273,0 -0.27074,0.05532 -2.13382,-2.270549 -1.1758,-1.467882 -1.49005,-1.822835 -1.55184,-1.752865 -0.0426,0.04825 -0.29069,0.32889 -0.55129,0.623633 l -0.4738,0.535895 0.16161,0.151826 c 0.20601,0.193541 0.32367,0.548412 0.2703,0.81526 -0.0229,0.114414 -0.15823,0.32755 -0.30078,0.473636 -0.25323,0.259516 -0.2575,0.27181 -0.18628,0.535665 0.0993,0.367739 -0.12702,1.344871 -0.48094,2.076741 -0.26663,0.55135 -0.76285,1.11913 -1.55117,1.77488 l -0.33073,0.27511 0.37649,0.37673 0.37649,0.37673 0.30003,-0.27655 c 0.16501,-0.15211 0.36307,-0.27656 0.44012,-0.27656 0.22194,0 0.51302,0.2064 0.62557,0.44358 0.094,0.19818 0.0938,0.23808 -0.003,0.4413 -0.0583,0.12288 -0.53266,0.64377 -1.05412,1.15755 -0.84348,0.83105 -0.97284,0.93413 -1.17221,0.93413 -0.28432,0 -0.50678,-0.15512 -0.62368,-0.43489 -0.11491,-0.27503 -0.075,-0.38807 0.26134,-0.73955 l 0.26932,-0.28147 -0.39238,-0.39652 c -0.21582,-0.21809 -0.413,-0.39652 -0.43819,-0.39652 -0.0369,0 -1.36607,1.0985 -1.60969,1.33032 -0.04,0.038 1.38626,1.5145 3.81146,3.94581 4.2505,4.26121 4.09067,4.07068 4.09067,4.87613 0,0.44802 -1.23898,3.97345 -1.45907,4.15166 -0.20249,0.16397 -0.5976,0.1486 -0.83058,-0.0323 -0.17226,-0.13375 -2.85957,-2.41941 -8.47169,-7.20547 l -1.99702,-1.70308 -0.86332,0.69322 c -1.17709,0.94517 -3.43842,2.69421 -4.05709,3.13798 -0.27895,0.20009 -0.49592,0.39644 -0.48215,0.43634 0.0138,0.0399 0.5365,0.8138 1.16163,1.71979 1.364,1.97682 1.41244,2.06379 1.41782,2.54571 0.004,0.3542 -0.0242,0.41634 -0.68811,1.52135 -0.38074,0.63364 -0.77284,1.23392 -0.87135,1.33397 -0.20996,0.21324 -0.4595,0.23484 -0.76428,0.0661 z"
         id="path84" />
      <path
         style="fill:#eecca6;stroke-width:0.0661458"
         d="m 113.41977,120.75418 c -0.13758,-0.0599 -0.83735,-0.8506 -2.1362,-2.41379 -1.25665,-1.51241 -1.95943,-2.30812 -2.01128,-2.27723 -0.0438,0.0261 -0.22852,0.15777 -0.41042,0.29256 -0.72699,0.53869 -1.41958,0.77379 -1.47547,0.50083 -0.0547,-0.26691 0.0761,-0.58903 0.49091,-1.20947 0.41499,-0.62069 0.42838,-0.65308 0.31,-0.74985 -2.21676,-1.81209 -4.34492,-3.62962 -4.42004,-3.77487 -0.11956,-0.2312 -0.12639,-0.53237 -0.0152,-0.66883 0.0455,-0.0558 0.41011,-0.32481 0.81029,-0.59781 0.40018,-0.273 0.9304,-0.63487 1.17827,-0.80416 0.39514,-0.26988 0.49293,-0.30763 0.79375,-0.30636 0.18869,8e-4 0.46253,0.0557 0.60852,0.12204 0.20698,0.094 2.05617,1.33293 3.67648,2.46314 l 0.1716,0.11969 0.88165,-1.17126 c 0.48491,-0.64419 1.44443,-1.87848 2.13226,-2.74287 0.68784,-0.86438 1.24079,-1.60035 1.22878,-1.63549 -0.012,-0.0351 -2.03101,-2.38742 -4.48668,-5.22731 -2.45566,-2.839894 -4.50588,-5.265983 -4.55604,-5.391312 -0.0747,-0.186656 -0.0761,-0.264436 -0.007,-0.430033 0.0461,-0.111189 0.13648,-0.230387 0.20094,-0.264884 0.0645,-0.0345 0.91614,-0.349908 1.89262,-0.700913 1.95388,-0.702338 2.22788,-0.753407 2.83375,-0.52816 0.29198,0.108548 0.78589,0.576983 4.21469,3.997256 2.13618,2.130865 3.89354,3.860946 3.90526,3.844626 0.017,-0.0237 0.68225,-0.81219 1.29657,-1.536791 0.0921,-0.108661 0.0663,-0.1521 -0.32357,-0.545523 l -0.42366,-0.427461 -0.30202,0.297476 c -0.39922,0.393216 -0.67988,0.411354 -0.98515,0.06366 -0.35774,-0.407442 -0.32758,-0.466142 0.83879,-1.632517 0.96259,-0.962583 1.06274,-1.044087 1.283,-1.044087 0.19066,0 0.28035,0.04721 0.44419,0.233812 0.2783,0.316968 0.26317,0.500098 -0.0713,0.862949 l -0.27658,0.300056 0.39233,0.388836 0.39234,0.388836 0.55622,-0.64076 c 0.30592,-0.352418 0.67799,-0.734318 0.82682,-0.848667 0.70579,-0.542261 1.78432,-0.905068 2.60418,-0.876019 0.38191,0.01353 0.43251,-0.0015 0.62839,-0.186883 0.44444,-0.42058 0.83249,-0.469715 1.19512,-0.151327 0.1243,0.109141 0.24636,0.198438 0.27124,0.198438 0.0249,0 0.32337,-0.242144 0.66332,-0.538096 l 0.61809,-0.538096 -0.70513,-0.571607 c -0.38782,-0.314384 -1.30408,-1.05221 -2.03613,-1.639615 -1.4182,-1.137978 -1.5037,-1.242139 -1.31661,-1.603933 0.1817,-0.351367 0.53099,-0.493453 0.82554,-0.335815 0.0663,0.03548 0.84024,0.959127 1.71989,2.052556 l 1.59936,1.988052 0.24996,-0.197974 c 0.13748,-0.108885 0.28958,-0.245709 0.338,-0.304053 0.26608,-0.320606 0.75642,-0.362213 0.82966,-0.0704 0.0508,0.202479 -0.0843,0.45904 -0.46454,0.881939 l -0.30422,0.338366 0.77906,0.619634 c 0.42849,0.340798 1.34865,1.071614 2.04481,1.624035 0.69615,0.552421 1.28402,1.052066 1.30638,1.110323 0.0949,0.247432 0.0367,0.469876 -0.17748,0.677438 -0.2663,0.258108 -0.55847,0.281061 -0.79663,0.06258 -0.0892,-0.08186 -0.84028,-0.997148 -1.66899,-2.033984 -0.82872,-1.036836 -1.51937,-1.900039 -1.53478,-1.918229 -0.0154,-0.01819 -0.12179,0.07413 -0.23639,0.20515 -0.1146,0.131023 -0.36436,0.41752 -0.55502,0.63666 l -0.34666,0.398437 0.19682,0.223236 c 0.21337,0.242017 0.30494,0.55537 0.23068,0.789354 -0.0258,0.08122 -0.16089,0.271366 -0.30025,0.422549 -0.2439,0.264609 -0.25083,0.284896 -0.18532,0.542988 0.0984,0.38775 -0.17448,1.480087 -0.53175,2.128437 -0.37012,0.67166 -0.47704,0.78889 -1.65263,1.81204 l -0.22379,0.19476 0.38687,0.39095 0.38686,0.39094 0.2679,-0.26292 c 0.37612,-0.36913 0.6102,-0.40306 0.91775,-0.13303 0.19546,0.17161 0.24106,0.25779 0.24106,0.45554 0,0.22702 -0.0724,0.31574 -1.04647,1.28299 -1.16739,1.15918 -1.22564,1.18897 -1.63014,0.83381 -0.33605,-0.29505 -0.32423,-0.55946 0.0428,-0.95764 l 0.27661,-0.30008 -0.42543,-0.42235 -0.42544,-0.42236 -0.83728,0.71367 -0.83729,0.71366 3.7993,3.7971 c 3.211,3.20913 3.82973,3.85763 3.99575,4.188 0.32397,0.64465 0.2983,0.80844 -0.46469,2.9655 -0.44254,1.25108 -0.70742,1.90739 -0.80108,1.98487 -0.16195,0.13397 -0.48977,0.14744 -0.70315,0.0289 -0.0814,-0.0452 -2.48667,-2.07565 -5.34515,-4.51211 -2.85848,-2.43646 -5.21781,-4.43705 -5.24296,-4.44576 -0.0252,-0.009 -0.62617,0.44758 -1.33558,1.01397 -0.70942,0.56639 -1.92236,1.50818 -2.69544,2.09288 -0.77308,0.5847 -1.4056,1.08446 -1.4056,1.11057 0,0.0261 0.5323,0.82004 1.18288,1.76427 0.65059,0.94423 1.23576,1.81877 1.30037,1.94343 0.068,0.1311 0.11951,0.38001 0.12232,0.59045 0.005,0.34992 -0.0238,0.4112 -0.74587,1.60571 -0.41289,0.68305 -0.81338,1.2858 -0.88998,1.33945 -0.17034,0.11932 -0.34345,0.12025 -0.61208,0.003 z m 0.47875,-8.61478 c 1.1598,-0.87141 3.60291,-2.7822 3.97463,-3.10861 l 0.21389,-0.18782 -1.22773,-1.27145 -1.22772,-1.27145 -0.44243,0.54385 c -1.12656,1.3848 -3.29284,4.20046 -3.61441,4.69789 -0.15105,0.23365 -0.0442,0.40025 0.14636,0.22822 0.0645,-0.0583 0.29149,-0.19744 0.50437,-0.30932 0.44568,-0.23422 0.80708,-0.2685 0.86622,-0.0822 0.0505,0.15923 -0.11653,0.62332 -0.36221,1.00618 -0.10809,0.16845 -0.19653,0.33492 -0.19653,0.36993 0,0.0736 0.13698,0.22241 0.2047,0.22241 0.0253,0 0.54765,-0.37695 1.16086,-0.83768 z m 11.12722,-9.04247 c 1.82954,-1.57078 2.21735,-1.97423 2.42808,-2.526 l 0.11612,-0.30407 -1.67347,-1.674441 c -1.86146,-1.862539 -1.67907,-1.749716 -2.30908,-1.428309 -0.50259,0.256404 -0.78973,0.563421 -3.37359,3.60718 l -0.67221,0.79186 1.66707,1.66802 1.66706,1.66803 0.1699,-0.12404 c 0.0934,-0.0682 0.98449,-0.82343 1.98012,-1.67823 z m -0.69145,-0.85201 c -0.0704,-0.0818 -0.18713,-0.26789 -0.25942,-0.41341 -0.17543,-0.35316 -1.10774,-1.28474 -1.52082,-1.51964 -0.39194,-0.22288 -0.49609,-0.337331 -0.49609,-0.545172 0,-0.216475 0.43549,-1.057725 0.5905,-1.140683 0.62357,-0.333724 2.20679,0.807636 2.97841,2.147165 0.25555,0.44364 0.31437,0.77858 0.17428,0.99238 -0.12389,0.18908 -0.95109,0.62819 -1.18339,0.62819 -0.0855,0 -0.21308,-0.067 -0.28347,-0.14883 z"
         id="path82" />
      <path
         style="fill:#c9c9c9;stroke-width:0.0661458"
         d="m 113.2771,120.65073 c -0.11823,-0.0721 -0.21577,-0.15384 -0.21674,-0.18166 -9.7e-4,-0.0278 -0.1126,-0.17163 -0.24805,-0.31958 -0.13545,-0.14795 -0.33557,-0.38336 -0.44471,-0.52313 -0.10914,-0.13977 -0.25797,-0.32177 -0.33073,-0.40445 -0.0728,-0.0827 -0.22159,-0.26126 -0.33073,-0.39686 -0.10914,-0.1356 -0.25797,-0.31419 -0.33073,-0.39688 -0.0728,-0.0827 -0.22159,-0.26187 -0.33073,-0.39819 -0.10914,-0.13633 -0.24489,-0.29645 -0.30167,-0.35583 -0.0568,-0.0594 -0.14608,-0.16823 -0.19844,-0.24189 -0.0524,-0.0737 -0.22915,-0.29077 -0.39286,-0.48247 -0.16371,-0.1917 -0.36459,-0.42728 -0.4464,-0.52352 -0.0818,-0.0962 -0.14879,-0.19624 -0.14883,-0.22225 -5e-5,-0.026 -0.0555,-0.077 -0.12333,-0.11324 -0.099,-0.053 -0.19972,-0.01 -0.51263,0.22147 -0.52086,0.38449 -1.03568,0.64491 -1.29853,0.65686 -0.19759,0.009 -0.21706,-0.008 -0.23629,-0.20824 -0.0262,-0.2726 0.15999,-0.66442 0.62118,-1.30723 0.19422,-0.2707 0.33129,-0.49218 0.3046,-0.49218 -0.0267,0 -0.13984,-0.0819 -0.25146,-0.1819 -0.11161,-0.10005 -0.31377,-0.2712 -0.44923,-0.38034 -0.13546,-0.10914 -0.31394,-0.25797 -0.39663,-0.33073 -0.0827,-0.0728 -0.26224,-0.22159 -0.39902,-0.33073 -0.13677,-0.10914 -0.28288,-0.22879 -0.32468,-0.26589 -0.12265,-0.10887 -0.92563,-0.7752 -1.19408,-0.99088 -0.13584,-0.10914 -0.31464,-0.25797 -0.39732,-0.33073 -0.0827,-0.0728 -0.26128,-0.22159 -0.39688,-0.33073 -0.65061,-0.52367 -0.83166,-0.75497 -0.83233,-1.06334 -5.4e-4,-0.2577 0.0486,-0.30103 1.38203,-1.21843 1.16823,-0.80375 1.36264,-0.87925 1.89506,-0.73588 0.15838,0.0427 1.02872,0.5957 2.14531,1.36323 1.03335,0.71031 1.89975,1.26896 1.92533,1.24144 0.0256,-0.0275 0.42699,-0.55605 0.89201,-1.17452 0.46502,-0.61846 1.41067,-1.83494 2.10144,-2.70327 1.13432,-1.42592 1.24797,-1.59157 1.17359,-1.71068 -0.0453,-0.0725 -2.05486,-2.41389 -4.46568,-5.20301 -2.41083,-2.78912 -4.41767,-5.135306 -4.45965,-5.213749 -0.12718,-0.237646 -0.0934,-0.575832 0.0725,-0.725895 0.0819,-0.07404 0.96738,-0.422042 1.96784,-0.773343 2.06746,-0.72597 2.27777,-0.75969 2.91041,-0.46665 0.30899,0.143124 0.93902,0.742958 4.18163,3.981226 2.0998,2.096992 3.8274,3.799371 3.83911,3.783051 0.017,-0.0237 0.68213,-0.81205 1.29656,-1.536781 0.0921,-0.108661 0.0663,-0.1521 -0.32357,-0.545523 l -0.42366,-0.427461 -0.30202,0.297476 c -0.39922,0.393216 -0.67988,0.411354 -0.98515,0.06366 -0.35774,-0.407442 -0.32758,-0.466142 0.83879,-1.632517 0.96259,-0.962583 1.06274,-1.044087 1.283,-1.044087 0.19066,0 0.28035,0.04721 0.44419,0.233812 0.2783,0.316968 0.26317,0.500098 -0.0713,0.862949 l -0.27658,0.300056 0.39233,0.388836 0.39234,0.388836 0.55622,-0.64076 c 0.60911,-0.701698 0.92544,-0.97351 1.42816,-1.227171 l 0.33072,-0.166881 0.18191,0.174047 c 0.20497,0.19612 0.22939,0.281588 0.0805,0.281588 -0.184,0 -0.76526,0.33426 -1.07117,0.615987 -0.27699,0.255095 -1.06026,1.14997 -2.78824,3.185514 l -0.67221,0.79186 1.66707,1.66802 1.66706,1.66803 0.1699,-0.12404 c 0.0934,-0.0682 0.98449,-0.82343 1.98012,-1.67823 1.82923,-1.57051 2.21737,-1.97426 2.42793,-2.52561 l 0.11598,-0.30368 -0.78784,-0.80557 c -0.43332,-0.443059 -1.26276,-1.288182 -1.84321,-1.87805 -0.58045,-0.589869 -1.03911,-1.088746 -1.01924,-1.108617 0.0957,-0.09573 1.31395,-0.307768 1.62617,-0.283045 0.31329,0.02481 0.36283,0.0093 0.52917,-0.165744 0.41366,-0.435287 0.86655,-0.501949 1.23175,-0.181304 0.1243,0.109141 0.24636,0.198438 0.27124,0.198438 0.0249,0 0.32337,-0.242144 0.66332,-0.538096 l 0.61809,-0.538096 -0.70513,-0.571607 c -0.38782,-0.314384 -1.30408,-1.05221 -2.03613,-1.639615 -1.4182,-1.137978 -1.5037,-1.242139 -1.31661,-1.603933 0.1817,-0.351367 0.53099,-0.493453 0.82554,-0.335815 0.0663,0.03548 0.84024,0.959127 1.71989,2.052556 l 1.59936,1.988052 0.24996,-0.197974 c 0.13748,-0.108885 0.28958,-0.245709 0.338,-0.304053 0.26608,-0.320606 0.75642,-0.362213 0.82966,-0.0704 0.0508,0.202479 -0.0843,0.45904 -0.46454,0.881939 l -0.30422,0.338366 0.77906,0.619634 c 0.42849,0.340798 1.34865,1.071614 2.04481,1.624035 0.69615,0.552421 1.28402,1.052066 1.30638,1.110323 0.0949,0.247432 0.0367,0.469876 -0.17748,0.677438 -0.2663,0.258108 -0.55847,0.281061 -0.79663,0.06258 -0.0892,-0.08186 -0.84028,-0.997148 -1.66899,-2.033984 -0.82872,-1.036836 -1.51937,-1.900039 -1.53478,-1.918229 -0.0154,-0.01819 -0.12179,0.07413 -0.23639,0.20515 -0.1146,0.131023 -0.36436,0.41752 -0.55502,0.63666 l -0.34666,0.398437 0.19682,0.223236 c 0.3627,0.411407 0.33051,0.83237 -0.0952,1.245001 -0.21091,0.20443 -0.21787,0.227464 -0.1873,0.620533 0.0597,0.767233 -0.37796,2.016594 -0.94348,2.693484 -0.13524,0.16186 -0.4132,0.43994 -0.61769,0.61794 -0.20449,0.17801 -0.4725,0.41129 -0.59558,0.51841 l -0.22379,0.19476 0.38687,0.39095 0.38686,0.39094 0.2679,-0.26292 c 0.37612,-0.36913 0.6102,-0.40306 0.91775,-0.13303 0.19546,0.17161 0.24106,0.25779 0.24106,0.45554 0,0.22702 -0.0724,0.31574 -1.04647,1.28299 -1.16739,1.15918 -1.22564,1.18897 -1.63014,0.83381 -0.33605,-0.29505 -0.32423,-0.55946 0.0428,-0.95764 l 0.27661,-0.30008 -0.42543,-0.42223 -0.42544,-0.42224 -0.83647,0.70726 -0.83647,0.70725 3.81964,3.83646 c 4.06982,4.08774 4.07595,4.09485 4.14871,4.80917 0.0326,0.31959 -0.0225,0.51501 -0.62972,2.23536 -0.73727,2.08881 -0.81903,2.22988 -1.25163,2.15968 -0.12435,-0.0202 -0.32007,-0.10946 -0.43492,-0.1984 -0.11485,-0.0889 -2.49847,-2.11442 -5.29692,-4.50108 -2.79845,-2.38665 -5.10529,-4.33906 -5.1263,-4.3387 -0.021,4e-4 -0.61864,0.46409 -1.32805,1.03051 -0.70942,0.56641 -1.92236,1.50822 -2.69544,2.09292 -0.77308,0.5847 -1.4056,1.09133 -1.4056,1.12585 0,0.0345 0.54405,0.85602 1.209,1.82555 0.66496,0.96954 1.24539,1.84604 1.28985,1.9478 0.0445,0.10176 0.0808,0.34329 0.0808,0.53674 0,0.33051 -0.0442,0.42506 -0.73275,1.56785 -0.40301,0.66887 -0.78077,1.25333 -0.83947,1.29881 -0.15937,0.12349 -0.54922,0.0994 -0.79249,-0.0489 z m 0.62142,-8.51133 c 1.08145,-0.81254 3.53437,-2.72788 3.98114,-3.10862 l 0.2204,-0.18783 -0.67152,-0.69452 c -0.36933,-0.38199 -0.92915,-0.97205 -1.24403,-1.31126 -0.34331,-0.36983 -0.58417,-0.58176 -0.60163,-0.52937 -0.016,0.0481 -0.3163,0.44464 -0.66729,0.88132 -1.06476,1.32468 -1.59283,2.00223 -2.42312,3.10906 -1.1356,1.51382 -1.10492,1.4661 -0.97478,1.51603 0.0596,0.0229 0.15615,-0.002 0.21455,-0.0542 0.0584,-0.0527 0.28036,-0.18737 0.49324,-0.29925 0.45038,-0.23669 0.80701,-0.26872 0.86757,-0.0779 0.0514,0.16202 -0.15362,0.69945 -0.40875,1.07133 -0.16106,0.23478 -0.18563,0.31394 -0.12636,0.40719 0.0405,0.0637 0.10779,0.11575 0.14961,0.11575 0.0418,0 0.57776,-0.37695 1.19097,-0.83768 z m 10.43577,-9.89448 c -0.0704,-0.0818 -0.18713,-0.26789 -0.25942,-0.41341 -0.17543,-0.35316 -1.10774,-1.28474 -1.52082,-1.51964 -0.39194,-0.22288 -0.49609,-0.337331 -0.49609,-0.545172 0,-0.216475 0.43549,-1.057725 0.5905,-1.140683 0.62357,-0.333724 2.20679,0.807636 2.97841,2.147165 0.25555,0.44364 0.31437,0.77858 0.17428,0.99238 -0.12389,0.18908 -0.95109,0.62819 -1.18339,0.62819 -0.0855,0 -0.21308,-0.067 -0.28347,-0.14883 z"
         id="path80" />
      <path
         style="fill:#4ec1f5;stroke-width:0.0661458"
         d="m 113.31388,120.66619 c -0.098,-0.0635 -1.00102,-1.11256 -2.00671,-2.33129 -1.00568,-1.21874 -1.86518,-2.24211 -1.90999,-2.27416 -0.0542,-0.0388 -0.22372,0.0465 -0.50683,0.25511 -0.6566,0.48375 -1.046,0.66096 -1.40101,0.6376 -0.29297,-0.0193 -0.0719,-0.64386 0.52899,-1.4943 l 0.326,-0.46142 -2.22119,-1.84343 c -1.22166,-1.01389 -2.27332,-1.92246 -2.33702,-2.01905 -0.16277,-0.24678 -0.14903,-0.55333 0.0321,-0.71682 0.0818,-0.0739 0.63806,-0.47092 1.23601,-0.88232 1.19239,-0.82038 1.41395,-0.90085 1.95906,-0.71149 0.14747,0.0512 1.02556,0.61364 1.95131,1.24981 0.92574,0.63616 1.89795,1.29811 2.16045,1.47098 l 0.47727,0.31432 0.44296,-0.26716 c 0.44314,-0.26727 0.81393,-0.38671 0.94638,-0.30486 0.18584,0.11486 0.0197,0.64164 -0.40772,1.2925 -0.10535,0.16042 -0.10073,0.17623 0.15438,0.52917 0.6401,0.88553 2.67428,3.89264 2.78319,4.11438 0.0713,0.14514 0.12027,0.39065 0.12027,0.60288 0,0.33854 -0.0399,0.42422 -0.73275,1.57416 -0.40301,0.66887 -0.78077,1.25333 -0.83947,1.29881 -0.15318,0.11869 -0.54779,0.10124 -0.75571,-0.0334 z m 15.77654,-2.44705 c -0.11465,-0.0637 -2.58473,-2.1446 -5.48907,-4.6243 -5.18708,-4.42867 -5.30831,-4.53765 -6.84296,-6.15156 -1.46893,-1.54478 -10.43461,-11.837141 -10.53167,-12.090053 -0.0917,-0.239057 -0.0447,-0.542314 0.10507,-0.677801 0.0819,-0.07404 0.96738,-0.422042 1.96784,-0.773343 1.46536,-0.514548 1.88974,-0.638381 2.18281,-0.636945 0.80285,0.0039 0.16884,-0.585976 10.75628,10.008022 7.61088,7.61558 9.69585,9.737 9.8106,9.9821 0.0801,0.17119 0.16177,0.46884 0.18139,0.66146 0.0326,0.31959 -0.0225,0.51501 -0.62972,2.23536 -0.51369,1.45536 -0.70465,1.91909 -0.83759,2.03399 -0.20696,0.17888 -0.39388,0.18806 -0.67298,0.0331 z m -3.43491,-12.11848 c -0.21083,-0.0873 -0.42255,-0.39339 -0.42255,-0.61083 0,-0.13832 0.0839,-0.2817 0.29458,-0.50371 l 0.29458,-0.31034 -0.42681,-0.43155 -0.42682,-0.43155 0.4795,-0.40713 0.4795,-0.40713 0.39988,0.39341 0.39987,0.39341 0.19544,-0.20771 c 0.39145,-0.41602 0.79936,-0.44481 1.0888,-0.0768 0.28602,0.36361 0.21948,0.48363 -0.87683,1.58128 -1.00801,1.00926 -1.19351,1.13701 -1.47914,1.01869 z m -1.23447,-3.77927 c -0.0646,-0.0376 -0.18294,-0.20779 -0.26306,-0.37823 -0.19344,-0.41152 -1.00398,-1.25086 -1.59307,-1.64967 -0.29705,-0.2011 -0.48147,-0.372866 -0.49424,-0.460324 -0.0234,-0.16062 0.41501,-1.068525 0.57475,-1.190145 0.54581,-0.415561 2.36234,0.936508 3.03097,2.255989 0.16392,0.32347 0.22051,0.73488 0.12283,0.89293 -0.0571,0.0923 -1.05817,0.60263 -1.17664,0.5998 -0.0463,-0.001 -0.13698,-0.0328 -0.20154,-0.0704 z m 1.50939,-3.729618 c -1.12123,-1.148857 -2.02428,-2.103155 -2.00677,-2.120663 0.0925,-0.09248 1.31726,-0.302868 1.62247,-0.278698 0.29939,0.02371 0.36636,0.006 0.49496,-0.130894 0.44477,-0.473439 0.94452,-0.533435 1.33307,-0.160037 l 0.20698,0.1989 0.62214,-0.54571 c 0.34218,-0.30014 0.62495,-0.564106 0.62839,-0.586589 0.003,-0.02248 -0.88665,-0.759755 -1.97796,-1.63838 -1.09132,-0.878625 -2.00615,-1.631991 -2.03298,-1.674146 -0.1127,-0.177126 -0.0484,-0.495152 0.14111,-0.698037 0.19676,-0.210627 0.43764,-0.263736 0.65581,-0.144593 0.0613,0.03346 0.82578,0.954472 1.6989,2.046688 0.87313,1.092217 1.60951,1.987573 1.63641,1.989681 0.0269,0.0021 0.21488,-0.146472 0.41774,-0.330177 0.33346,-0.301986 0.59419,-0.45974 0.75983,-0.45974 0.0332,0 0.10644,0.0704 0.16282,0.156436 0.13881,0.211856 0.0535,0.419904 -0.37486,0.914393 -0.18544,0.214049 -0.32583,0.398302 -0.31199,0.409452 0.0138,0.01115 0.90324,0.712907 1.97646,1.55946 1.07322,0.846552 2.00339,1.59867 2.06706,1.671373 0.38559,0.440334 -0.36356,1.251979 -0.82586,0.894745 -0.0589,-0.04547 -0.8119,-0.960768 -1.67346,-2.033984 -0.86155,-1.073217 -1.58922,-1.959968 -1.61705,-1.970557 -0.0278,-0.01059 -0.25408,0.212651 -0.50278,0.496093 -0.72042,0.82106 -0.67077,0.722733 -0.4705,0.931777 0.39047,0.407567 0.374,0.856241 -0.0464,1.263712 -0.21454,0.207932 -0.22114,0.229538 -0.19049,0.623617 0.0295,0.378994 -0.15305,1.344836 -0.30569,1.617596 -0.0335,0.0599 -0.68481,-0.56461 -2.08736,-2.001718 z m -5.70515,0.482338 -0.40923,-0.409224 -0.33142,0.310006 c -0.37362,0.349479 -0.60632,0.396375 -0.8838,0.178112 -0.23621,-0.185806 -0.31915,-0.457077 -0.21388,-0.699571 0.0463,-0.106588 0.51397,-0.617956 1.03933,-1.136374 1.07636,-1.062119 1.1826,-1.112543 1.58553,-0.752521 0.3126,0.279304 0.29766,0.583246 -0.046,0.935151 l -0.25868,0.264914 0.38748,0.391565 0.38748,0.391564 -0.39008,0.463378 c -0.21454,0.254857 -0.40525,0.465367 -0.4238,0.467801 -0.0186,0.0024 -0.21789,-0.179727 -0.44296,-0.404801 z"
         id="path78" />
      <path
         style="fill:#9d9d9d;stroke-width:0.0661458"
         d="m 113.31388,120.66619 c -0.098,-0.0635 -1.00102,-1.11256 -2.00671,-2.33129 -1.00568,-1.21874 -1.86518,-2.24211 -1.90999,-2.27416 -0.0542,-0.0388 -0.22372,0.0465 -0.50683,0.25511 -0.6566,0.48375 -1.046,0.66096 -1.40101,0.6376 -0.29297,-0.0193 -0.0719,-0.64386 0.52899,-1.4943 l 0.326,-0.46142 -2.22119,-1.84343 c -1.22166,-1.01389 -2.27332,-1.92246 -2.33702,-2.01905 -0.16277,-0.24678 -0.14903,-0.55333 0.0321,-0.71682 0.0818,-0.0739 0.63806,-0.47092 1.23601,-0.88232 1.19239,-0.82038 1.41395,-0.90085 1.95906,-0.71149 0.14747,0.0512 1.02556,0.61364 1.95131,1.24981 0.92574,0.63616 1.89795,1.29811 2.16045,1.47098 l 0.47727,0.31432 0.44296,-0.26716 c 0.44314,-0.26727 0.81393,-0.38671 0.94638,-0.30486 0.18584,0.11486 0.0197,0.64164 -0.40772,1.2925 -0.10535,0.16042 -0.10073,0.17623 0.15438,0.52917 0.6401,0.88553 2.67428,3.89264 2.78319,4.11438 0.0713,0.14514 0.12027,0.39065 0.12027,0.60288 0,0.33854 -0.0399,0.42422 -0.73275,1.57416 -0.40301,0.66887 -0.78077,1.25333 -0.83947,1.29881 -0.15318,0.11869 -0.54779,0.10124 -0.75571,-0.0334 z m 15.77654,-2.44705 c -0.11465,-0.0637 -2.58473,-2.1446 -5.48907,-4.6243 -5.18708,-4.42867 -5.30831,-4.53765 -6.84296,-6.15156 -1.46893,-1.54478 -10.43461,-11.837141 -10.53167,-12.090053 -0.0917,-0.239057 -0.0447,-0.542314 0.10507,-0.677801 0.0819,-0.07404 0.96738,-0.422042 1.96784,-0.773343 1.46536,-0.514548 1.88974,-0.638381 2.18281,-0.636945 0.80285,0.0039 0.16884,-0.585976 10.75628,10.008022 7.61088,7.61558 9.69585,9.737 9.8106,9.9821 0.0801,0.17119 0.16177,0.46884 0.18139,0.66146 0.0326,0.31959 -0.0225,0.51501 -0.62972,2.23536 -0.51369,1.45536 -0.70465,1.91909 -0.83759,2.03399 -0.20696,0.17888 -0.39388,0.18806 -0.67298,0.0331 z m -3.43491,-12.11848 c -0.21083,-0.0873 -0.42255,-0.39339 -0.42255,-0.61083 0,-0.13832 0.0839,-0.2817 0.29458,-0.50371 l 0.29458,-0.31034 -0.42681,-0.43155 -0.42682,-0.43155 0.4795,-0.40713 0.4795,-0.40713 0.39988,0.39341 0.39987,0.39341 0.19544,-0.20771 c 0.39145,-0.41602 0.79936,-0.44481 1.0888,-0.0768 0.28602,0.36361 0.21948,0.48363 -0.87683,1.58128 -1.00801,1.00926 -1.19351,1.13701 -1.47914,1.01869 z m -1.23066,-3.77713 c -0.0625,-0.0364 -0.17379,-0.20233 -0.24738,-0.36871 -0.17455,-0.39458 -1.03909,-1.28626 -1.60634,-1.65676 -0.2763,-0.18047 -0.46065,-0.349888 -0.48462,-0.445375 -0.0482,-0.191976 0.36496,-1.040767 0.57985,-1.191278 0.21841,-0.152982 0.38047,-0.129971 0.894,0.126934 1.0151,0.507836 2.26791,1.998619 2.26791,2.698709 0,0.27279 -0.15124,0.42231 -0.70918,0.70108 -0.44402,0.22186 -0.52036,0.23675 -0.69424,0.1354 z m 0.57483,-0.67056 c 0.16664,-0.081 0.29943,-0.19163 0.29943,-0.24956 0,-0.20637 -0.50512,-0.95472 -0.93367,-1.38328 -0.39372,-0.39372 -1.17299,-0.933856 -1.34686,-0.933552 -0.0942,1.33e-4 -0.47333,0.614238 -0.3955,0.640552 0.38724,0.130924 1.53891,1.21187 1.85079,1.73715 0.10827,0.18234 0.2035,0.33212 0.21162,0.33285 0.008,7.2e-4 0.14951,-0.0641 0.31419,-0.14416 z m 0.93075,-3.061198 c -1.12123,-1.148857 -2.02428,-2.103155 -2.00677,-2.120663 0.0925,-0.09248 1.31726,-0.302868 1.62247,-0.278698 0.29939,0.02371 0.36636,0.006 0.49496,-0.130894 0.44477,-0.473439 0.94452,-0.533435 1.33307,-0.160037 l 0.20698,0.1989 0.62214,-0.54571 c 0.34218,-0.30014 0.62495,-0.564106 0.62839,-0.586589 0.003,-0.02248 -0.88665,-0.759755 -1.97796,-1.63838 -1.09132,-0.878625 -2.00615,-1.631991 -2.03298,-1.674146 -0.1127,-0.177126 -0.0484,-0.495152 0.14111,-0.698037 0.19676,-0.210627 0.43764,-0.263736 0.65581,-0.144593 0.0613,0.03346 0.82578,0.954472 1.6989,2.046688 0.87313,1.092217 1.60951,1.987573 1.63641,1.989681 0.0269,0.0021 0.21488,-0.146472 0.41774,-0.330177 0.33346,-0.301986 0.59419,-0.45974 0.75983,-0.45974 0.0332,0 0.10644,0.0704 0.16282,0.156436 0.13881,0.211856 0.0535,0.419904 -0.37486,0.914393 -0.18544,0.214049 -0.32583,0.398302 -0.31199,0.409452 0.0138,0.01115 0.90324,0.712907 1.97646,1.55946 1.07322,0.846552 2.00339,1.59867 2.06706,1.671373 0.38559,0.440334 -0.36356,1.251979 -0.82586,0.894745 -0.0589,-0.04547 -0.8119,-0.960768 -1.67346,-2.033984 -0.86155,-1.073217 -1.58922,-1.959968 -1.61705,-1.970557 -0.0278,-0.01059 -0.25408,0.212651 -0.50278,0.496093 -0.72042,0.82106 -0.67077,0.722733 -0.4705,0.931777 0.39047,0.407567 0.374,0.856241 -0.0464,1.263712 -0.21454,0.207932 -0.22114,0.229538 -0.19049,0.623617 0.0295,0.378994 -0.15305,1.344836 -0.30569,1.617596 -0.0335,0.0599 -0.68481,-0.56461 -2.08736,-2.001718 z m -5.70515,0.482338 -0.40923,-0.409224 -0.33142,0.310006 c -0.37362,0.349479 -0.60632,0.396375 -0.8838,0.178112 -0.23621,-0.185806 -0.31915,-0.457077 -0.21388,-0.699571 0.0463,-0.106588 0.51397,-0.617956 1.03933,-1.136374 1.07636,-1.062119 1.1826,-1.112543 1.58553,-0.752521 0.3126,0.279304 0.29766,0.583246 -0.046,0.935151 l -0.25868,0.264914 0.38748,0.391565 0.38748,0.391564 -0.39008,0.463378 c -0.21454,0.254857 -0.40525,0.465367 -0.4238,0.467801 -0.0186,0.0024 -0.21789,-0.179727 -0.44296,-0.404801 z"
         id="path76" />
      <path
         style="fill:#e39e55;stroke-width:0.0661458"
         d="m 113.35496,120.70679 c -0.0754,-0.0366 -1.00913,-1.11878 -2.07495,-2.40484 l -1.93783,-2.3383 -0.4386,0.31749 c -1.09339,0.79147 -1.70358,0.87888 -1.46509,0.20988 0.094,-0.26384 0.59961,-1.08169 0.81073,-1.31155 l 0.13391,-0.1458 -0.19058,-0.16026 c -0.10482,-0.0882 -1.11303,-0.9257 -2.24048,-1.86123 -1.12745,-0.93553 -2.10207,-1.78007 -2.16584,-1.87676 -0.16287,-0.24694 -0.14918,-0.55346 0.032,-0.71699 0.0818,-0.0739 0.63699,-0.47018 1.23363,-0.88067 1.16736,-0.80316 1.36282,-0.8792 1.89303,-0.73643 0.15757,0.0424 1.10652,0.64977 2.34749,1.50241 1.14565,0.78715 2.14762,1.46137 2.2266,1.49826 0.11315,0.0528 0.18607,0.0368 0.34394,-0.0756 0.1102,-0.0785 0.36533,-0.21819 0.56697,-0.31051 0.41148,-0.18838 0.63259,-0.16708 0.63157,0.0608 -7.5e-4,0.16644 -0.2668,0.76268 -0.46373,1.03925 l -0.13429,0.18859 0.80604,1.17806 c 0.44332,0.64793 1.12236,1.63942 1.50896,2.20332 0.82178,1.19862 0.86335,1.28275 0.86335,1.74701 0,0.33051 -0.0442,0.42506 -0.73275,1.56785 -0.40301,0.66887 -0.78077,1.25333 -0.83947,1.29881 -0.12596,0.0976 -0.52017,0.10156 -0.71463,0.007 z m 15.73546,-2.48765 c -0.11465,-0.0637 -2.58473,-2.1446 -5.48907,-4.6243 -5.18708,-4.42867 -5.30831,-4.53765 -6.84296,-6.15156 -1.46893,-1.54478 -10.43461,-11.837141 -10.53167,-12.090053 -0.0917,-0.239057 -0.0447,-0.542314 0.10507,-0.677801 0.0819,-0.07404 0.96738,-0.422042 1.96784,-0.773343 1.46536,-0.514548 1.88974,-0.638381 2.18281,-0.636945 0.80285,0.0039 0.16884,-0.585976 10.75628,10.008022 7.61088,7.61558 9.69585,9.737 9.8106,9.9821 0.0801,0.17119 0.16177,0.46884 0.18139,0.66146 0.0326,0.31959 -0.0225,0.51501 -0.62972,2.23536 -0.51369,1.45536 -0.70465,1.91909 -0.83759,2.03399 -0.20696,0.17888 -0.39388,0.18806 -0.67298,0.0331 z m -3.5686,-12.23845 c -0.16204,-0.13126 -0.28886,-0.355 -0.28886,-0.50964 0,-0.0585 0.13951,-0.25555 0.31003,-0.43785 l 0.31003,-0.33145 -0.43552,-0.43551 -0.43552,-0.43552 0.44941,-0.38776 c 0.24717,-0.21326 0.47393,-0.38775 0.50391,-0.38775 0.03,0 0.22509,0.16881 0.4336,0.37514 l 0.37909,0.37514 0.29934,-0.27592 c 0.38733,-0.35703 0.60521,-0.36733 0.89076,-0.0421 0.11291,0.1286 0.20529,0.29765 0.20529,0.37567 0,0.0946 -0.34604,0.49034 -1.03911,1.18832 -0.89155,0.89787 -1.06767,1.04626 -1.24023,1.045 -0.11062,-8.1e-4 -0.26462,-0.0529 -0.34222,-0.11576 z m -1.09697,-3.65716 c -0.0625,-0.0364 -0.17379,-0.20233 -0.24738,-0.36871 -0.17455,-0.39458 -1.03909,-1.28626 -1.60634,-1.65676 -0.2763,-0.18047 -0.46065,-0.349888 -0.48462,-0.445375 -0.0482,-0.191976 0.36496,-1.040767 0.57985,-1.191278 0.21841,-0.152982 0.38047,-0.129971 0.894,0.126934 1.0151,0.507836 2.26791,1.998619 2.26791,2.698709 0,0.27279 -0.15124,0.42231 -0.70918,0.70108 -0.44402,0.22186 -0.52036,0.23675 -0.69424,0.1354 z m 0.57483,-0.67056 c 0.16664,-0.081 0.29943,-0.19163 0.29943,-0.24956 0,-0.20637 -0.50512,-0.95472 -0.93367,-1.38328 -0.39372,-0.39372 -1.17299,-0.933856 -1.34686,-0.933552 -0.0942,1.33e-4 -0.47333,0.614238 -0.3955,0.640552 0.38724,0.130924 1.53891,1.21187 1.85079,1.73715 0.10827,0.18234 0.2035,0.33212 0.21162,0.33285 0.008,7.2e-4 0.14951,-0.0641 0.31419,-0.14416 z m 0.93075,-3.061198 c -1.12123,-1.148857 -2.02431,-2.103124 -2.00684,-2.120593 0.0643,-0.06426 1.21885,-0.292318 1.48696,-0.293704 0.15225,-7.87e-4 0.35487,0.02824 0.45027,0.06451 0.0954,0.03627 0.15711,0.03951 0.13714,0.0072 -0.0508,-0.08217 0.45302,-0.523922 0.65547,-0.574734 0.24157,-0.06063 0.46403,0.01299 0.72101,0.238624 l 0.22568,0.198147 0.63543,-0.565745 c 0.34949,-0.31116 0.63543,-0.576234 0.63543,-0.589054 0,-0.01282 -0.75158,-0.627215 -1.67018,-1.365323 -2.33272,-1.87437 -2.43086,-1.961472 -2.43086,-2.157365 0,-0.423871 0.43208,-0.768124 0.77721,-0.619234 0.11233,0.04846 0.7988,0.847787 1.79476,2.089819 l 1.61285,2.011349 0.33845,-0.304782 c 0.46897,-0.422316 0.59936,-0.498214 0.81373,-0.47364 0.15306,0.01755 0.18936,0.05664 0.20407,0.21978 0.0193,0.214284 -0.0733,0.381512 -0.47472,0.857167 -0.1486,0.176089 -0.23291,0.329498 -0.19843,0.361079 0.033,0.0302 0.94358,0.756585 2.02358,1.614185 1.08001,0.857601 1.99783,1.623151 2.03961,1.701223 0.2336,0.436489 -0.40719,1.03998 -0.81827,0.770633 -0.0825,-0.05406 -0.87363,-0.997136 -1.75807,-2.095724 -1.29506,-1.608653 -1.62337,-1.980117 -1.68676,-1.908467 -0.0433,0.04893 -0.29275,0.331034 -0.55435,0.626896 -0.2616,0.295861 -0.47443,0.563752 -0.47295,0.595313 0.001,0.03156 0.0908,0.160438 0.19844,0.286394 0.28101,0.328761 0.27209,0.687701 -0.0267,1.072226 -0.12232,0.157445 -0.25542,0.279102 -0.29578,0.270351 -0.0517,-0.01121 -0.0544,0.03399 -0.009,0.153134 0.10136,0.266593 0.0758,0.721657 -0.0734,1.305857 -0.0757,0.296486 -0.15957,0.578276 -0.18638,0.626186 -0.0335,0.0599 -0.68481,-0.56461 -2.08736,-2.001714 z m -5.69148,0.494688 c -0.216,-0.218281 -0.42034,-0.396875 -0.45409,-0.396875 -0.0337,0 -0.20456,0.133945 -0.37958,0.297656 -0.17502,0.163711 -0.37799,0.297656 -0.45104,0.297656 -0.073,0 -0.23804,-0.09238 -0.36663,-0.205289 -0.42356,-0.371889 -0.37891,-0.465713 0.77491,-1.628304 0.5548,-0.559015 1.07249,-1.032411 1.15043,-1.05199 0.1729,-0.04344 0.52407,0.12858 0.61701,0.302232 0.1396,0.260858 0.0792,0.495114 -0.19715,0.764997 l -0.26525,0.259013 0.40261,0.406226 0.40261,0.406226 -0.40782,0.472663 c -0.2243,0.259965 -0.41354,0.472664 -0.42055,0.472664 -0.007,0 -0.18946,-0.178594 -0.40546,-0.396875 z"
         id="path74" />
      <path
         style="fill:#4ca9d3;stroke-width:0.0661458"
         d="m 113.41143,120.71484 c -0.0807,-0.0325 -1.02599,-1.11723 -2.10057,-2.41054 l -1.95379,-2.35148 -0.44604,0.3229 c -1.10086,0.79694 -1.71172,0.88625 -1.47254,0.2153 0.0956,-0.26828 0.60084,-1.08302 0.81859,-1.32014 l 0.14177,-0.15437 -0.16966,-0.14328 c -0.0933,-0.0788 -1.11566,-0.92788 -2.27189,-1.88683 -2.16917,-1.79906 -2.35275,-1.99083 -2.2599,-2.36075 0.0425,-0.16949 2.24563,-1.72695 2.58344,-1.82634 0.23453,-0.069 0.65148,-0.0134 0.91628,0.12213 0.10303,0.0527 1.11857,0.73384 2.25675,1.51354 1.13819,0.77969 2.10597,1.41763 2.15064,1.41763 0.0447,0 0.16616,-0.0605 0.27,-0.13444 0.10383,-0.0739 0.35376,-0.20995 0.5554,-0.30227 0.41148,-0.18838 0.63259,-0.16708 0.63157,0.0608 -7.5e-4,0.16735 -0.26716,0.76318 -0.46623,1.04277 -0.0786,0.11044 -0.11542,0.22745 -0.0865,0.27524 0.0277,0.0457 0.70501,1.03564 1.50523,2.1998 0.80022,1.16417 1.49661,2.23573 1.54753,2.38125 0.17797,0.50857 0.0959,0.75999 -0.64737,1.98438 -0.37546,0.61846 -0.74259,1.19145 -0.81584,1.2733 -0.14056,0.15708 -0.41726,0.18986 -0.68686,0.0814 z m 15.71863,-2.49926 c -0.16652,-0.0857 -6.9376,-5.81148 -10.41742,-8.80921 -0.11186,-0.0964 -0.91684,-0.9174 -1.78883,-1.82452 -1.04119,-1.08313 -3.10365,-3.40905 -6.0081,-6.7756 -2.43247,-2.819465 -4.47999,-5.190347 -4.55006,-5.268627 -0.18789,-0.209926 -0.22541,-0.618109 -0.0736,-0.800324 0.0851,-0.102136 0.69642,-0.350207 2.00754,-0.814669 1.72411,-0.610765 1.91659,-0.665159 2.25309,-0.636733 0.21011,0.01775 0.50805,0.103192 0.69454,0.199178 0.24946,0.128399 2.61703,2.461493 10.02564,9.879665 8.69955,8.71077 9.71179,9.74565 9.82265,10.04229 0.21757,0.58214 0.17117,0.8269 -0.53286,2.8112 -0.35496,1.00046 -0.69477,1.86749 -0.75513,1.92674 -0.17606,0.1728 -0.42792,0.19905 -0.6775,0.0706 z m -3.60824,-12.23489 c -0.16204,-0.13126 -0.28886,-0.355 -0.28886,-0.50964 0,-0.0585 0.13951,-0.25555 0.31003,-0.43785 l 0.31003,-0.33145 -0.43552,-0.43551 -0.43552,-0.43552 0.44941,-0.38776 c 0.24717,-0.21326 0.47393,-0.38775 0.50391,-0.38775 0.03,0 0.22509,0.16881 0.4336,0.37514 l 0.37909,0.37514 0.29934,-0.27592 c 0.38733,-0.35703 0.60521,-0.36733 0.89076,-0.0421 0.11291,0.1286 0.20529,0.29765 0.20529,0.37567 0,0.0946 -0.34604,0.49034 -1.03911,1.18832 -0.89155,0.89787 -1.06767,1.04626 -1.24023,1.045 -0.11062,-8.1e-4 -0.26462,-0.0529 -0.34222,-0.11576 z m -1.09697,-3.65716 c -0.0625,-0.0364 -0.17379,-0.20233 -0.24738,-0.36871 -0.17455,-0.39458 -1.03909,-1.28626 -1.60634,-1.65676 -0.2763,-0.18047 -0.46065,-0.349888 -0.48462,-0.445375 -0.0482,-0.191976 0.36496,-1.040767 0.57985,-1.191278 0.21841,-0.152982 0.38047,-0.129971 0.894,0.126934 1.0151,0.507836 2.26791,1.998619 2.26791,2.698709 0,0.27279 -0.15124,0.42231 -0.70918,0.70108 -0.44402,0.22186 -0.52036,0.23675 -0.69424,0.1354 z m 0.57483,-0.67056 c 0.16664,-0.081 0.29943,-0.19163 0.29943,-0.24956 0,-0.20637 -0.50512,-0.95472 -0.93367,-1.38328 -0.39372,-0.39372 -1.17299,-0.933856 -1.34686,-0.933552 -0.0942,1.33e-4 -0.47333,0.614238 -0.3955,0.640552 0.38724,0.130924 1.53891,1.21187 1.85079,1.73715 0.10827,0.18234 0.2035,0.33212 0.21162,0.33285 0.008,7.2e-4 0.14951,-0.0641 0.31419,-0.14416 z m 0.93383,-3.089656 c -1.12123,-1.121663 -2.01046,-2.056774 -1.97607,-2.078024 0.0344,-0.02125 0.34149,-0.09952 0.68246,-0.173942 1.13914,-0.248622 1.16559,-0.237683 2.44792,1.012318 l 1.02803,1.002117 -1.0689,-1.075076 -1.06889,-1.075074 0.25417,-0.229627 c 0.42013,-0.379567 0.737,-0.388701 1.14221,-0.03292 l 0.22568,0.198147 0.63543,-0.565745 c 0.34949,-0.31116 0.63543,-0.576234 0.63543,-0.589054 0,-0.01282 -0.75158,-0.627215 -1.67018,-1.365323 -2.33272,-1.87437 -2.43086,-1.961472 -2.43086,-2.157365 0,-0.423871 0.43208,-0.768124 0.77721,-0.619234 0.11233,0.04846 0.7988,0.847787 1.79476,2.089819 l 1.61285,2.011349 0.33845,-0.304782 c 0.46897,-0.422316 0.59936,-0.498214 0.81373,-0.47364 0.15306,0.01755 0.18936,0.05664 0.20407,0.21978 0.0193,0.214284 -0.0733,0.381512 -0.47472,0.857167 -0.1486,0.176089 -0.23291,0.329498 -0.19843,0.361079 0.033,0.0302 0.94358,0.756585 2.02358,1.614185 1.08001,0.857601 1.99783,1.623151 2.03961,1.701223 0.2336,0.436489 -0.40719,1.03998 -0.81827,0.770633 -0.0825,-0.05406 -0.87363,-0.997136 -1.75807,-2.095724 -1.29506,-1.608653 -1.62337,-1.980117 -1.68676,-1.908467 -0.0433,0.04893 -0.29275,0.331034 -0.55435,0.626896 -0.2616,0.295861 -0.47443,0.563752 -0.47295,0.595313 0.001,0.03156 0.0908,0.160438 0.19844,0.286394 0.31694,0.370799 0.26672,0.770435 -0.15607,1.241907 -0.10117,0.112823 -0.15375,0.130548 -0.22119,0.07457 -0.0683,-0.05667 -0.0658,-0.01921 0.0108,0.164066 0.13893,0.332506 0.12423,0.647906 -0.0617,1.323659 -0.0885,0.321691 -0.17169,0.595661 -0.18485,0.608821 -0.0132,0.0132 -0.94131,-0.89378 -2.06253,-2.015443 z m -5.69456,0.523146 c -0.216,-0.218281 -0.42034,-0.396875 -0.45409,-0.396875 -0.0337,0 -0.20456,0.133945 -0.37958,0.297656 -0.17502,0.163711 -0.37799,0.297656 -0.45104,0.297656 -0.073,0 -0.23804,-0.09238 -0.36663,-0.205289 -0.42356,-0.371889 -0.37891,-0.465713 0.77491,-1.628304 0.5548,-0.559015 1.07249,-1.032411 1.15043,-1.05199 0.1729,-0.04344 0.52407,0.12858 0.61701,0.302232 0.1396,0.260858 0.0792,0.495114 -0.19715,0.764997 l -0.26525,0.259013 0.40261,0.406226 0.40261,0.406226 -0.40782,0.472663 c -0.2243,0.259965 -0.41354,0.472664 -0.42055,0.472664 -0.007,0 -0.18946,-0.178594 -0.40546,-0.396875 z"
         id="path72" />
      <path
         style="fill:#f78400;stroke-width:0.0661458"
         d="m 113.41143,120.71484 c -0.0807,-0.0325 -1.02599,-1.11723 -2.10057,-2.41054 l -1.95379,-2.35148 -0.44604,0.3229 c -1.10086,0.79694 -1.71172,0.88625 -1.47254,0.2153 0.0956,-0.26828 0.60084,-1.08302 0.81859,-1.32014 l 0.14177,-0.15437 -0.16966,-0.14328 c -0.0933,-0.0788 -1.11566,-0.92788 -2.27189,-1.88683 -2.16917,-1.79906 -2.35275,-1.99083 -2.2599,-2.36075 0.0425,-0.16949 2.24563,-1.72695 2.58344,-1.82634 0.23453,-0.069 0.65148,-0.0134 0.91628,0.12213 0.10303,0.0527 1.11857,0.73384 2.25675,1.51354 1.13819,0.77969 2.10597,1.41763 2.15064,1.41763 0.0447,0 0.16616,-0.0605 0.27,-0.13444 0.10383,-0.0739 0.35376,-0.20995 0.5554,-0.30227 0.41148,-0.18838 0.63259,-0.16708 0.63157,0.0608 -7.5e-4,0.16735 -0.26716,0.76318 -0.46623,1.04277 -0.0786,0.11044 -0.11542,0.22745 -0.0865,0.27524 0.0277,0.0457 0.70501,1.03564 1.50523,2.1998 0.80022,1.16417 1.49661,2.23573 1.54753,2.38125 0.17797,0.50857 0.0959,0.75999 -0.64737,1.98438 -0.37546,0.61846 -0.74259,1.19145 -0.81584,1.2733 -0.14056,0.15708 -0.41726,0.18986 -0.68686,0.0814 z m 15.71863,-2.49926 c -0.16652,-0.0857 -6.9376,-5.81148 -10.41742,-8.80921 -0.11186,-0.0964 -0.91684,-0.9174 -1.78883,-1.82452 -1.04119,-1.08313 -3.10365,-3.40905 -6.0081,-6.7756 -2.43247,-2.819465 -4.47999,-5.190347 -4.55006,-5.268627 -0.18789,-0.209926 -0.22541,-0.618109 -0.0736,-0.800324 0.0851,-0.102136 0.69642,-0.350207 2.00754,-0.814669 1.72411,-0.610765 1.91659,-0.665159 2.25309,-0.636733 0.21011,0.01775 0.50805,0.103192 0.69454,0.199178 0.24946,0.128399 2.61703,2.461493 10.02564,9.879665 8.69955,8.71077 9.71179,9.74565 9.82265,10.04229 0.21757,0.58214 0.17117,0.8269 -0.53286,2.8112 -0.35496,1.00046 -0.69477,1.86749 -0.75513,1.92674 -0.17606,0.1728 -0.42792,0.19905 -0.6775,0.0706 z m -3.60824,-12.23489 c -0.16204,-0.13126 -0.28886,-0.355 -0.28886,-0.50964 0,-0.0585 0.13951,-0.25555 0.31003,-0.43785 l 0.31003,-0.33145 -0.43552,-0.43551 -0.43552,-0.43552 0.44941,-0.38776 c 0.24717,-0.21326 0.47393,-0.38775 0.50391,-0.38775 0.03,0 0.22509,0.16881 0.4336,0.37514 l 0.37909,0.37514 0.29934,-0.27592 c 0.38733,-0.35703 0.60521,-0.36733 0.89076,-0.0421 0.11291,0.1286 0.20529,0.29765 0.20529,0.37567 0,0.0946 -0.34604,0.49034 -1.03911,1.18832 -0.89155,0.89787 -1.06767,1.04626 -1.24023,1.045 -0.11062,-8.1e-4 -0.26462,-0.0529 -0.34222,-0.11576 z m 0.41169,-7.417376 c -1.12123,-1.121663 -2.01046,-2.056774 -1.97607,-2.078024 0.0344,-0.02125 0.34149,-0.09952 0.68246,-0.173942 1.13914,-0.248622 1.16559,-0.237683 2.44792,1.012318 l 1.02803,1.002117 -1.0689,-1.075076 -1.06889,-1.075074 0.25417,-0.229627 c 0.42013,-0.379567 0.737,-0.388701 1.14221,-0.03292 l 0.22568,0.198147 0.63543,-0.565745 c 0.34949,-0.31116 0.63543,-0.576234 0.63543,-0.589054 0,-0.01282 -0.75158,-0.627215 -1.67018,-1.365323 -2.33272,-1.87437 -2.43086,-1.961472 -2.43086,-2.157365 0,-0.423871 0.43208,-0.768124 0.77721,-0.619234 0.11233,0.04846 0.7988,0.847787 1.79476,2.089819 l 1.61285,2.011349 0.33845,-0.304782 c 0.46897,-0.422316 0.59936,-0.498214 0.81373,-0.47364 0.15306,0.01755 0.18936,0.05664 0.20407,0.21978 0.0193,0.214284 -0.0733,0.381512 -0.47472,0.857167 -0.1486,0.176089 -0.23291,0.329498 -0.19843,0.361079 0.033,0.0302 0.94358,0.756585 2.02358,1.614185 1.08001,0.857601 1.99783,1.623151 2.03961,1.701223 0.2336,0.436489 -0.40719,1.03998 -0.81827,0.770633 -0.0825,-0.05406 -0.87363,-0.997136 -1.75807,-2.095724 -1.29506,-1.608653 -1.62337,-1.980117 -1.68676,-1.908467 -0.0433,0.04893 -0.29275,0.331034 -0.55435,0.626896 -0.2616,0.295861 -0.47443,0.563752 -0.47295,0.595313 0.001,0.03156 0.0908,0.160438 0.19844,0.286394 0.31694,0.370799 0.26672,0.770435 -0.15607,1.241907 -0.10117,0.112823 -0.15375,0.130548 -0.22119,0.07457 -0.0683,-0.05667 -0.0658,-0.01921 0.0108,0.164066 0.13893,0.332506 0.12423,0.647906 -0.0617,1.323659 -0.0885,0.321691 -0.17169,0.595661 -0.18485,0.608821 -0.0132,0.0132 -0.94131,-0.89378 -2.06253,-2.015443 z m -5.69456,0.523146 c -0.216,-0.218281 -0.42034,-0.396875 -0.45409,-0.396875 -0.0337,0 -0.20456,0.133945 -0.37958,0.297656 -0.17502,0.163711 -0.37799,0.297656 -0.45104,0.297656 -0.073,0 -0.23804,-0.09238 -0.36663,-0.205289 -0.42356,-0.371889 -0.37891,-0.465713 0.77491,-1.628304 0.5548,-0.559015 1.07249,-1.032411 1.15043,-1.05199 0.1729,-0.04344 0.52407,0.12858 0.61701,0.302232 0.1396,0.260858 0.0792,0.495114 -0.19715,0.764997 l -0.26525,0.259013 0.40261,0.406226 0.40261,0.406226 -0.40782,0.472663 c -0.2243,0.259965 -0.41354,0.472664 -0.42055,0.472664 -0.007,0 -0.18946,-0.178594 -0.40546,-0.396875 z"
         id="path70" />
      <path
         style="fill:#f27800;stroke-width:0.0661458"
         d="m 113.41143,120.71484 c -0.0807,-0.0325 -1.02599,-1.11723 -2.10057,-2.41054 l -1.95379,-2.35148 -0.44604,0.3229 c -1.10086,0.79694 -1.71172,0.88625 -1.47254,0.2153 0.0956,-0.26828 0.60084,-1.08302 0.81859,-1.32014 l 0.14177,-0.15437 -0.16966,-0.14328 c -0.0933,-0.0788 -1.11566,-0.92788 -2.27189,-1.88683 -2.16917,-1.79906 -2.35275,-1.99083 -2.2599,-2.36075 0.0425,-0.16949 2.24563,-1.72695 2.58344,-1.82634 0.23453,-0.069 0.65148,-0.0134 0.91628,0.12213 0.10303,0.0527 1.11857,0.73384 2.25675,1.51354 1.13819,0.77969 2.10597,1.41763 2.15064,1.41763 0.0447,0 0.16616,-0.0605 0.27,-0.13444 0.10383,-0.0739 0.35376,-0.20995 0.5554,-0.30227 0.41148,-0.18838 0.63259,-0.16708 0.63157,0.0608 -7.5e-4,0.16824 -0.2675,0.76367 -0.4687,1.04623 l -0.13926,0.19557 0.59862,0.87342 c 0.32924,0.48039 1.03904,1.52257 1.57733,2.31596 l 0.97872,1.44254 2.6e-4,0.44262 2.6e-4,0.44262 -0.68863,1.12448 c -0.37875,0.61846 -0.74857,1.19145 -0.82182,1.2733 -0.14056,0.15708 -0.41726,0.18986 -0.68685,0.0814 z m 0.86455,-1.85421 c 0.48162,-0.81648 0.57759,-1.02394 0.54106,-1.16952 -0.0244,-0.0973 -0.275,-0.50576 -0.55681,-0.90761 -0.28182,-0.40185 -0.72464,-1.04317 -0.98404,-1.42517 -0.2594,-0.38199 -0.69628,-0.91685 -0.97085,-1.18859 l -0.49922,-0.49406 -0.89246,0.89094 c -0.49086,0.49001 -0.88542,0.91279 -0.87682,0.9395 0.0238,0.074 3.58275,4.34696 3.6206,4.34702 0.0182,2e-5 0.29653,-0.4466 0.61854,-0.99251 z m -3.96421,-6.7488 c -0.37708,-0.38105 -3.2487,-2.39597 -3.60796,-2.53157 -0.17395,-0.0657 -0.25285,-0.0255 -1.14941,0.58461 -0.91755,0.62443 -0.95712,0.66047 -0.84503,0.76964 0.0647,0.063 1.01866,0.85815 2.11995,1.76701 l 2.00235,1.65246 0.92957,-0.92956 0.92956,-0.92956 z m 18.81829,6.10375 c -0.16652,-0.0857 -6.9376,-5.81148 -10.41742,-8.80921 -0.11186,-0.0964 -0.91684,-0.9174 -1.78883,-1.82452 -1.04119,-1.08313 -3.10365,-3.40905 -6.0081,-6.7756 -2.43247,-2.819465 -4.47999,-5.190347 -4.55006,-5.268627 -0.18789,-0.209926 -0.22541,-0.618109 -0.0736,-0.800324 0.0851,-0.102136 0.69642,-0.350207 2.00754,-0.814669 1.72411,-0.610765 1.91659,-0.665159 2.25309,-0.636733 0.21011,0.01775 0.50805,0.103192 0.69454,0.199178 0.24946,0.128399 2.61703,2.461493 10.02564,9.879665 8.69955,8.71077 9.71179,9.74565 9.82265,10.04229 0.21757,0.58214 0.17117,0.8269 -0.53286,2.8112 -0.35496,1.00046 -0.69477,1.86749 -0.75513,1.92674 -0.17606,0.1728 -0.42792,0.19905 -0.6775,0.0706 z m -10.45511,-13.30682 1.67715,-1.34277 -2.14014,-2.15708 c -1.17708,-1.1864 -3.24148,-3.267871 -4.58756,-4.625496 -1.34609,-1.357627 -2.55786,-2.525927 -2.69284,-2.596224 -0.13498,-0.0703 -0.34334,-0.128569 -0.46302,-0.129493 -0.2057,-0.0016 -3.3586,1.055588 -3.35924,1.126359 -3.6e-4,0.0401 2.95389,3.461161 7.93951,9.194074 1.0969,1.2613 1.80139,1.98573 1.87593,1.929 0.0402,-0.0306 0.82778,-0.65984 1.75021,-1.39837 z m 6.84687,1.07193 c -0.16204,-0.13126 -0.28886,-0.355 -0.28886,-0.50964 0,-0.0585 0.13951,-0.25555 0.31003,-0.43785 l 0.31003,-0.33145 -0.43552,-0.43551 -0.43552,-0.43552 0.44941,-0.38776 c 0.24717,-0.21326 0.47393,-0.38775 0.50391,-0.38775 0.03,0 0.22509,0.16881 0.4336,0.37514 l 0.37909,0.37514 0.29934,-0.27592 c 0.38733,-0.35703 0.60521,-0.36733 0.89076,-0.0421 0.11291,0.1286 0.20529,0.29765 0.20529,0.37567 0,0.0946 -0.34604,0.49034 -1.03911,1.18832 -0.89155,0.89787 -1.06767,1.04626 -1.24023,1.045 -0.11062,-8.1e-4 -0.26462,-0.0529 -0.34222,-0.11576 z m 2.24632,-5.58021 -0.20309,-0.20309 0.1287,-0.502408 c 0.20409,-0.796655 0.19211,-0.821708 -0.92849,-1.942843 -0.64531,-0.645614 -1.03649,-0.987129 -1.1685,-1.020135 -0.12196,-0.0305 -0.4123,-0.0056 -0.75339,0.06453 l -0.55495,0.114143 -0.18963,-0.181671 c -0.10429,-0.09992 -0.1671,-0.203934 -0.13957,-0.231144 0.0275,-0.02721 0.33142,-0.11075 0.67533,-0.185645 1.14559,-0.249479 1.17008,-0.239383 2.45327,1.011452 l 1.02803,1.002117 -1.0689,-1.075076 -1.06889,-1.075074 0.25417,-0.229627 c 0.42013,-0.379567 0.737,-0.388701 1.14221,-0.03292 l 0.22568,0.198147 0.63543,-0.565745 c 0.34949,-0.31116 0.63543,-0.576234 0.63543,-0.589054 0,-0.01282 -0.75158,-0.627215 -1.67018,-1.365323 -2.33272,-1.87437 -2.43086,-1.961472 -2.43086,-2.157365 0,-0.423871 0.43208,-0.768124 0.77721,-0.619234 0.11233,0.04846 0.7988,0.847787 1.79476,2.089819 l 1.61285,2.011349 0.33845,-0.304782 c 0.46897,-0.422316 0.59936,-0.498214 0.81373,-0.47364 0.15306,0.01755 0.18936,0.05664 0.20407,0.21978 0.0193,0.214284 -0.0733,0.381512 -0.47472,0.857167 -0.1486,0.176089 -0.23291,0.329498 -0.19843,0.361079 0.033,0.0302 0.94358,0.756585 2.02358,1.614185 1.08001,0.857601 1.99783,1.623151 2.03961,1.701223 0.2336,0.436489 -0.40719,1.03998 -0.81827,0.770633 -0.0825,-0.05406 -0.87363,-0.997136 -1.75807,-2.095724 -1.29506,-1.608653 -1.62337,-1.980117 -1.68676,-1.908467 -0.0433,0.04893 -0.29275,0.331034 -0.55435,0.626896 -0.2616,0.295861 -0.47443,0.563752 -0.47295,0.595313 0.001,0.03156 0.0908,0.160438 0.19844,0.286394 0.31694,0.370799 0.26672,0.770435 -0.15607,1.241907 -0.10117,0.112823 -0.15375,0.130548 -0.22119,0.07457 -0.0683,-0.05667 -0.0658,-0.01921 0.0108,0.164066 0.0546,0.130623 0.0986,0.335191 0.0979,0.454595 -0.001,0.199277 -0.28493,1.418372 -0.34378,1.477222 -0.014,0.014 -0.11687,-0.0659 -0.22857,-0.17761 z m -7.52919,-1.31402 c -0.216,-0.218281 -0.42034,-0.396875 -0.45409,-0.396875 -0.0337,0 -0.20456,0.133945 -0.37958,0.297656 -0.17502,0.163711 -0.37799,0.297656 -0.45104,0.297656 -0.073,0 -0.23804,-0.09238 -0.36663,-0.205289 -0.42356,-0.371889 -0.37891,-0.465713 0.77491,-1.628304 0.5548,-0.559015 1.07249,-1.032411 1.15043,-1.05199 0.1729,-0.04344 0.52407,0.12858 0.61701,0.302232 0.1396,0.260858 0.0792,0.495114 -0.19715,0.764997 l -0.26525,0.259013 0.40261,0.406226 0.40261,0.406226 -0.40782,0.472663 c -0.2243,0.259965 -0.41354,0.472664 -0.42055,0.472664 -0.007,0 -0.18946,-0.178594 -0.40546,-0.396875 z"
         id="path68" />
      <path
         style="fill:#d2760b;stroke-width:0.0661458"
         d="m 113.41143,120.71484 c -0.0807,-0.0325 -1.02599,-1.11723 -2.10057,-2.41054 l -1.95379,-2.35148 -0.44604,0.3229 c -1.10086,0.79694 -1.71172,0.88625 -1.47254,0.2153 0.0956,-0.26828 0.60084,-1.08302 0.81859,-1.32014 l 0.14177,-0.15437 -0.16966,-0.14328 c -0.0933,-0.0788 -1.11566,-0.92788 -2.27189,-1.88683 -2.16917,-1.79906 -2.35275,-1.99083 -2.2599,-2.36075 0.0425,-0.16949 2.24563,-1.72695 2.58344,-1.82634 0.23453,-0.069 0.65148,-0.0134 0.91628,0.12213 0.10303,0.0527 1.11857,0.73384 2.25675,1.51354 1.13819,0.77969 2.10597,1.41763 2.15064,1.41763 0.0447,0 0.16616,-0.0605 0.27,-0.13444 0.10383,-0.0739 0.35376,-0.20995 0.5554,-0.30227 0.41148,-0.18838 0.63259,-0.16708 0.63157,0.0608 -7.5e-4,0.16735 -0.26716,0.76318 -0.46623,1.04277 -0.0798,0.112 -0.11545,0.22677 -0.0856,0.27524 0.0282,0.0457 0.67393,0.99099 1.43505,2.10058 0.76111,1.1096 1.45784,2.17662 1.54828,2.37116 0.27236,0.58584 0.21868,0.78001 -0.57884,2.09369 -0.37546,0.61846 -0.74259,1.19145 -0.81584,1.2733 -0.14056,0.15708 -0.41726,0.18986 -0.68686,0.0814 z m 0.86152,-1.80948 c 0.35019,-0.579 0.57511,-1.02154 0.57511,-1.13153 0,-0.12615 -0.42214,-0.80205 -1.39944,-2.24064 -0.76969,-1.13301 -1.40861,-2.07137 -1.41981,-2.08525 -0.0376,-0.0466 -1.97641,1.99911 -1.96882,2.07741 0.009,0.0883 3.53069,4.3309 3.59546,4.3309 0.0233,0 0.30118,-0.4279 0.6175,-0.95089 z m -5.01553,-4.95262 c 0.20547,-0.22738 0.64701,-0.66234 0.9812,-0.96658 0.33419,-0.30424 0.61651,-0.57648 0.62738,-0.60499 0.0184,-0.0483 -3.47161,-2.47533 -3.91862,-2.72514 -0.1112,-0.0621 -0.27164,-0.11423 -0.35653,-0.11576 -0.14987,-0.003 -1.99986,1.21195 -1.99126,1.3074 0.005,0.0534 4.17458,3.51012 4.24019,3.51512 0.0242,0.002 0.21217,-0.18268 0.41764,-0.41005 z m 19.87264,4.26284 c -0.16652,-0.0857 -6.9376,-5.81148 -10.41742,-8.80921 -0.11186,-0.0964 -0.91684,-0.9174 -1.78883,-1.82452 -1.04119,-1.08313 -3.10365,-3.40905 -6.0081,-6.7756 -2.43247,-2.819465 -4.47999,-5.190347 -4.55006,-5.268627 -0.18789,-0.209926 -0.22541,-0.618109 -0.0736,-0.800324 0.0851,-0.102136 0.69642,-0.350207 2.00754,-0.814669 1.72411,-0.610765 1.91659,-0.665159 2.25309,-0.636733 0.21011,0.01775 0.50805,0.103192 0.69454,0.199178 0.24946,0.128399 2.61703,2.461493 10.02564,9.879665 8.69955,8.71077 9.71179,9.74565 9.82265,10.04229 0.21757,0.58214 0.17117,0.8269 -0.53286,2.8112 -0.35496,1.00046 -0.69477,1.86749 -0.75513,1.92674 -0.17606,0.1728 -0.42792,0.19905 -0.6775,0.0706 z m 0.7584,-2.49979 c 0.54172,-1.54157 0.56787,-1.64114 0.49864,-1.89823 -0.0628,-0.23322 -0.53601,-0.74092 -3.36959,-3.61514 -4.88894,-4.95907 -15.94976,-15.984781 -16.12515,-16.073973 -0.31629,-0.160845 -0.65697,-0.08929 -2.22676,0.467727 -0.85613,0.303783 -1.5566,0.570526 -1.5566,0.592762 0,0.128942 8.85288,10.269164 10.20945,11.694054 1.5744,1.6537 1.67229,1.74176 6.74602,6.06888 2.83164,2.41496 5.17181,4.39084 5.20037,4.39084 0.0286,0 0.30919,-0.73211 0.62362,-1.62692 z m -4.36664,-9.7351 c -0.16204,-0.13126 -0.28886,-0.355 -0.28886,-0.50964 0,-0.0585 0.13951,-0.25555 0.31003,-0.43785 l 0.31003,-0.33145 -0.43552,-0.43551 -0.43552,-0.43552 0.44941,-0.38776 c 0.24717,-0.21326 0.47393,-0.38775 0.50391,-0.38775 0.03,0 0.22509,0.16881 0.4336,0.37514 l 0.37909,0.37514 0.29934,-0.27592 c 0.38733,-0.35703 0.60521,-0.36733 0.89076,-0.0421 0.11291,0.1286 0.20529,0.29765 0.20529,0.37567 0,0.0946 -0.34604,0.49034 -1.03911,1.18832 -0.89155,0.89787 -1.06767,1.04626 -1.24023,1.045 -0.11062,-8.1e-4 -0.26462,-0.0529 -0.34222,-0.11576 z m 2.24735,-5.57918 -0.20207,-0.20206 0.12892,-0.496823 c 0.20456,-0.788302 0.18426,-0.832769 -0.86483,-1.894871 -0.49704,-0.503197 -0.98408,-0.957122 -1.08232,-1.008724 -0.22763,-0.119569 -0.50693,-0.117371 -1.03957,0.0082 l -0.42445,0.100047 -0.18784,-0.179964 c -0.10331,-0.09898 -0.16532,-0.202226 -0.13779,-0.229436 0.0275,-0.02721 0.33142,-0.11075 0.67533,-0.185645 1.14559,-0.249479 1.17008,-0.239383 2.45327,1.011452 l 1.02803,1.002117 -1.0689,-1.075076 -1.06889,-1.075074 0.25417,-0.229627 c 0.42013,-0.379567 0.737,-0.388701 1.14221,-0.03292 l 0.22568,0.198147 0.63543,-0.565745 c 0.34949,-0.31116 0.63543,-0.576234 0.63543,-0.589054 0,-0.01282 -0.75158,-0.627215 -1.67018,-1.365323 -2.33272,-1.87437 -2.43086,-1.961472 -2.43086,-2.157365 0,-0.423871 0.43208,-0.768124 0.77721,-0.619234 0.11233,0.04846 0.7988,0.847787 1.79476,2.089819 l 1.61285,2.011349 0.33845,-0.304782 c 0.46897,-0.422316 0.59936,-0.498214 0.81373,-0.47364 0.15306,0.01755 0.18936,0.05664 0.20407,0.21978 0.0193,0.214284 -0.0733,0.381512 -0.47472,0.857167 -0.1486,0.176089 -0.23291,0.329498 -0.19843,0.361079 0.033,0.0302 0.94358,0.756585 2.02358,1.614185 1.08001,0.857601 1.99783,1.623151 2.03961,1.701223 0.2336,0.436489 -0.40719,1.03998 -0.81827,0.770633 -0.0825,-0.05406 -0.87363,-0.997136 -1.75807,-2.095724 -1.29506,-1.608653 -1.62337,-1.980117 -1.68676,-1.908467 -0.0433,0.04893 -0.29275,0.331034 -0.55435,0.626896 -0.2616,0.295861 -0.47443,0.563752 -0.47295,0.595313 0.001,0.03156 0.0908,0.160438 0.19844,0.286394 0.31694,0.370799 0.26672,0.770435 -0.15607,1.241907 -0.10117,0.112823 -0.15375,0.130548 -0.22119,0.07457 -0.0683,-0.05667 -0.0658,-0.01921 0.0108,0.164066 0.0546,0.130623 0.0992,0.335191 0.0991,0.454595 -1.4e-4,0.181178 -0.29651,1.428785 -0.35278,1.485055 -0.01,0.01 -0.10857,-0.0733 -0.2197,-0.18442 z m -7.53022,-1.31505 c -0.216,-0.218281 -0.42034,-0.396875 -0.45409,-0.396875 -0.0337,0 -0.20456,0.133945 -0.37958,0.297656 -0.17502,0.163711 -0.37799,0.297656 -0.45104,0.297656 -0.073,0 -0.23804,-0.09238 -0.36663,-0.205289 -0.42356,-0.371889 -0.37891,-0.465713 0.77491,-1.628304 0.5548,-0.559015 1.07249,-1.032411 1.15043,-1.05199 0.1729,-0.04344 0.52407,0.12858 0.61701,0.302232 0.1396,0.260858 0.0792,0.495114 -0.19715,0.764997 l -0.26525,0.259013 0.40261,0.406226 0.40261,0.406226 -0.40782,0.472663 c -0.2243,0.259965 -0.41354,0.472664 -0.42055,0.472664 -0.007,0 -0.18946,-0.178594 -0.40546,-0.396875 z"
         id="path66" />
      <path
         style="fill:#cd680c;stroke-width:0.0661458"
         d="m 128.92567,118.08713 c -0.67778,-0.55943 -10.57188,-9.02294 -10.57188,-9.04329 0,-0.0134 0.11861,-0.11833 0.26358,-0.23315 l 0.26358,-0.20876 1.24684,1.04656 c 0.68576,0.57561 2.98038,2.51996 5.09916,4.32078 2.11878,1.80082 3.9022,3.31003 3.96315,3.35379 0.0995,0.0714 0.17007,-0.0876 0.68977,-1.55443 0.31842,-0.8987 0.57822,-1.67864 0.57733,-1.73321 -0.006,-0.39125 -0.32573,-0.74483 -4.06921,-4.5056 -2.09048,-2.10013 -3.79922,-3.84307 -3.7972,-3.8732 0.004,-0.0625 0.33473,-0.33416 0.46965,-0.38594 0.0555,-0.0213 1.56818,1.44841 3.96515,3.85252 4.21853,4.23111 4.16757,4.17117 4.16734,4.90237 -7e-5,0.30362 -0.11782,0.70476 -0.62814,2.14042 -0.3454,0.97173 -0.65863,1.82399 -0.69605,1.89391 -0.14714,0.27493 -0.62622,0.28876 -0.94307,0.0272 z m -21.53136,-1.24885 c -0.0648,-0.16894 0.0975,-0.54002 0.50055,-1.14402 0.20443,-0.30638 0.41177,-0.62897 0.46076,-0.71686 0.13003,-0.23332 1.75855,-1.89127 2.43692,-2.48096 0.32058,-0.27868 0.71681,-0.58231 0.88052,-0.67475 1.34664,-0.76039 1.64143,-0.71188 1.19299,0.19628 -0.3515,0.71184 -0.55432,0.99997 -1.26579,1.7983 -1.76258,1.97774 -3.99199,3.57959 -4.20595,3.02201 z m 18.12751,-10.85759 c -0.16204,-0.13126 -0.28886,-0.355 -0.28886,-0.50964 0,-0.0585 0.13951,-0.25555 0.31003,-0.43785 l 0.31003,-0.33145 -0.43552,-0.43551 -0.43552,-0.43552 0.44941,-0.38776 c 0.24717,-0.21326 0.47393,-0.38775 0.50391,-0.38775 0.03,0 0.22509,0.16881 0.4336,0.37514 l 0.37909,0.37514 0.29934,-0.27592 c 0.38733,-0.35703 0.60521,-0.36733 0.89076,-0.0421 0.11291,0.1286 0.20529,0.29765 0.20529,0.37567 0,0.0946 -0.34604,0.49034 -1.03911,1.18832 -0.89155,0.89787 -1.06767,1.04626 -1.24023,1.045 -0.11062,-8.1e-4 -0.26462,-0.0529 -0.34222,-0.11576 z m 7.34406,-6.325561 c -0.0766,-0.05483 -0.86146,-0.996821 -1.74422,-2.093324 -1.29261,-1.605606 -1.62032,-1.976326 -1.68371,-1.904676 -0.0433,0.04893 -0.29275,0.331034 -0.55435,0.626896 -0.2616,0.295861 -0.47443,0.563752 -0.47295,0.595313 0.001,0.03156 0.0908,0.160438 0.19844,0.286394 0.27806,0.325314 0.27148,0.686674 -0.0195,1.068123 -0.11837,0.155187 -0.23921,0.269123 -0.26855,0.253189 -0.0293,-0.01593 -0.56765,-0.543293 -1.19627,-1.171911 l -1.14294,-1.142941 0.25226,-0.227906 c 0.41816,-0.37778 0.73569,-0.386469 1.14031,-0.0312 l 0.22568,0.198147 0.63543,-0.565745 c 0.34949,-0.31116 0.63543,-0.576234 0.63543,-0.589054 0,-0.01282 -0.75158,-0.627215 -1.67018,-1.365323 -2.33272,-1.87437 -2.43086,-1.961472 -2.43086,-2.157365 0,-0.423871 0.43208,-0.768124 0.77721,-0.619234 0.11233,0.04846 0.7988,0.847787 1.79476,2.089819 l 1.61285,2.011349 0.33845,-0.304782 c 0.46897,-0.422316 0.59936,-0.498214 0.81373,-0.47364 0.15306,0.01755 0.18936,0.05664 0.20407,0.21978 0.0193,0.214284 -0.0733,0.381512 -0.47472,0.857167 -0.1486,0.176089 -0.23291,0.329498 -0.19843,0.361079 0.033,0.0302 0.94358,0.756585 2.02358,1.614185 1.08001,0.857601 1.99728,1.622125 2.03839,1.698942 0.23744,0.443663 -0.42918,1.056547 -0.83395,0.766723 z M 120.23895,99.08646 c -0.216,-0.218281 -0.42034,-0.396875 -0.45409,-0.396875 -0.0337,0 -0.20456,0.133945 -0.37958,0.297656 -0.17502,0.163711 -0.37799,0.297656 -0.45104,0.297656 -0.073,0 -0.23804,-0.09238 -0.36663,-0.205289 -0.42356,-0.371889 -0.37891,-0.465713 0.77491,-1.628304 0.5548,-0.559015 1.07249,-1.032411 1.15043,-1.05199 0.1729,-0.04344 0.52407,0.12858 0.61701,0.302232 0.1396,0.260858 0.0792,0.495114 -0.19715,0.764997 l -0.26525,0.259013 0.40261,0.406226 0.40261,0.406226 -0.40782,0.472663 c -0.2243,0.259965 -0.41354,0.472664 -0.42055,0.472664 -0.007,0 -0.18946,-0.178594 -0.40546,-0.396875 z"
         id="path64" />
      <path
         style="fill:#676767;stroke-width:0.0661458"
         d="m 107.39431,116.83828 c -0.15319,-0.3992 0.84327,-1.82015 2.29179,-3.2681 1.05901,-1.0586 1.9027,-1.73052 2.62498,-2.09057 0.73823,-0.368 0.91748,-0.21877 0.5878,0.48935 -0.21234,0.45611 -0.4833,0.85127 -1.05409,1.53729 -1.6676,2.00427 -4.2252,3.91912 -4.45048,3.33203 z m 18.12751,-10.85759 c -0.16204,-0.13126 -0.28886,-0.355 -0.28886,-0.50964 0,-0.0585 0.13951,-0.25555 0.31003,-0.43785 l 0.31003,-0.33145 -0.43552,-0.43551 -0.43552,-0.43552 0.44941,-0.38776 c 0.24717,-0.21326 0.47393,-0.38775 0.50391,-0.38775 0.03,0 0.22509,0.16881 0.4336,0.37514 l 0.37909,0.37514 0.29934,-0.27592 c 0.38733,-0.35703 0.60521,-0.36733 0.89076,-0.0421 0.11291,0.1286 0.20529,0.29765 0.20529,0.37567 0,0.0946 -0.34604,0.49034 -1.03911,1.18832 -0.89155,0.89787 -1.06767,1.04626 -1.24023,1.045 -0.11062,-8.1e-4 -0.26462,-0.0529 -0.34222,-0.11576 z m 7.34406,-6.325561 c -0.0766,-0.05483 -0.86146,-0.996821 -1.74422,-2.093324 -1.29261,-1.605606 -1.62032,-1.976326 -1.68371,-1.904676 -0.0433,0.04893 -0.29275,0.331034 -0.55435,0.626896 -0.2616,0.295861 -0.47443,0.563752 -0.47295,0.595313 0.001,0.03156 0.0908,0.160438 0.19844,0.286394 0.27806,0.325314 0.27148,0.686674 -0.0195,1.068123 -0.11837,0.155187 -0.23921,0.269123 -0.26855,0.253189 -0.0293,-0.01593 -0.56765,-0.543293 -1.19627,-1.171911 l -1.14294,-1.142941 0.25226,-0.227906 c 0.41816,-0.37778 0.73569,-0.386469 1.14031,-0.0312 l 0.22568,0.198147 0.63543,-0.565745 c 0.34949,-0.31116 0.63543,-0.576234 0.63543,-0.589054 0,-0.01282 -0.75158,-0.627215 -1.67018,-1.365323 -2.33272,-1.87437 -2.43086,-1.961472 -2.43086,-2.157365 0,-0.423871 0.43208,-0.768124 0.77721,-0.619234 0.11233,0.04846 0.7988,0.847787 1.79476,2.089819 l 1.61285,2.011349 0.33845,-0.304782 c 0.46897,-0.422316 0.59936,-0.498214 0.81373,-0.47364 0.15306,0.01755 0.18936,0.05664 0.20407,0.21978 0.0193,0.214284 -0.0733,0.381512 -0.47472,0.857167 -0.1486,0.176089 -0.23291,0.329498 -0.19843,0.361079 0.033,0.0302 0.94358,0.756585 2.02358,1.614185 1.08001,0.857601 1.99728,1.622125 2.03839,1.698942 0.23744,0.443663 -0.42918,1.056547 -0.83395,0.766723 z M 120.23895,99.08646 c -0.216,-0.218281 -0.42034,-0.396875 -0.45409,-0.396875 -0.0337,0 -0.20456,0.133945 -0.37958,0.297656 -0.17502,0.163711 -0.37799,0.297656 -0.45104,0.297656 -0.073,0 -0.23804,-0.09238 -0.36663,-0.205289 -0.42356,-0.371889 -0.37891,-0.465713 0.77491,-1.628304 0.5548,-0.559015 1.07249,-1.032411 1.15043,-1.05199 0.1729,-0.04344 0.52407,0.12858 0.61701,0.302232 0.1396,0.260858 0.0792,0.495114 -0.19715,0.764997 l -0.26525,0.259013 0.40261,0.406226 0.40261,0.406226 -0.40782,0.472663 c -0.2243,0.259965 -0.41354,0.472664 -0.42055,0.472664 -0.007,0 -0.18946,-0.178594 -0.40546,-0.396875 z"
         id="path62" />
      <path
         style="fill:#444444;stroke-width:0.0661458"
         d="m 125.39625,104.24112 -0.3948,-0.4016 0.33073,-0.29638 c 0.63603,-0.56998 0.58482,-0.56312 1.01236,-0.13558 l 0.37407,0.37406 -0.42672,0.43054 c -0.2347,0.2368 -0.4434,0.43055 -0.46378,0.43055 -0.0204,0 -0.21471,-0.18072 -0.43186,-0.40159 z m -5.17597,-5.1732 -0.41127,-0.414961 0.44835,-0.444914 0.44834,-0.444913 0.37674,0.380704 0.37673,0.380704 -0.33521,0.396715 c -0.18436,0.218194 -0.37057,0.43382 -0.4138,0.479171 -0.062,0.065 -0.1657,-0.0054 -0.48988,-0.332506 z m 11.84048,-0.725601 c -0.5033,-0.627558 -0.94129,-1.18433 -0.97332,-1.237271 -0.0801,-0.132373 2.28541,1.792733 2.37251,1.930818 0.0545,0.08643 0.0351,0.147804 -0.0883,0.279132 -0.087,0.09258 -0.21163,0.168337 -0.277,0.168337 -0.0744,0 -0.46101,-0.426639 -1.03393,-1.141016 z m -4.94721,-1.018503 -1.12904,-1.14503 0.20729,-0.200914 c 0.38075,-0.36904 0.78743,-0.38999 1.16814,-0.06017 l 0.2212,0.191635 -0.2491,0.216128 -0.24909,0.216128 0.4235,0.419742 0.42351,0.419741 0.22983,-0.250793 0.22984,-0.250793 0.2076,0.286588 c 0.29423,0.406168 0.28518,0.709657 -0.0316,1.0603 -0.13157,0.145625 -0.25807,0.259756 -0.28112,0.253623 -0.0231,-0.0061 -0.54998,-0.526414 -1.17096,-1.156181 z m -0.92148,-4.852509 c -0.71793,-0.585123 -1.13238,-0.96789 -1.14633,-1.058712 -0.0283,-0.184432 0.1749,-0.407207 0.34876,-0.382302 0.0844,0.0121 0.49327,0.463356 1.08134,1.193537 0.52007,0.645749 0.92199,1.171804 0.89315,1.169012 -0.0288,-0.0028 -0.55845,-0.417483 -1.17692,-0.921535 z"
         id="path60" />
      <path
         style="fill:#202020;stroke-width:0.0661458"
         d="m 125.39894,104.24646 c -0.2442,-0.24678 -0.36818,-0.41893 -0.32866,-0.45637 0.0349,-0.0331 0.24198,-0.21116 0.46018,-0.39576 l 0.39671,-0.33564 0.38064,0.37667 0.38065,0.37667 -0.41165,0.41534 c -0.2264,0.22844 -0.42832,0.41534 -0.4487,0.41534 -0.0204,0 -0.21351,-0.17831 -0.42917,-0.39625 z m -5.1792,-5.179084 -0.41087,-0.414556 0.43061,-0.426784 0.43061,-0.426785 0.37587,0.375867 0.37587,0.375867 -0.35502,0.416565 c -0.19526,0.229111 -0.37328,0.438575 -0.3956,0.465474 -0.0223,0.0269 -0.22549,-0.137642 -0.45147,-0.365648 z"
         id="path58" />
    </g>
  </g>
</svg>
